:SAMPLES-PER-SECOND 30
:FULLY-SPECIFIED
:DEGREES
427
root  14.2518 29.3698 1.27357 -4.11731 -75.6716 -11.4033
RightUpLeg  -13.7581 -3.25466 -34.9829
RightLeg  60.5643 -5.62516 -11.0928
RightFoot  -6.67841 -1.83028 40.7194
RightToes  -5.28226e-011 1.30204e-014 -6.03759e-014
Spine  36.4179 3.13279 -10.3147
Spine1  1.38051 -4.32905 18.3961
HEad  -20.6694 5.47256 -4.47834
LeftShoulder1  1.71881 -4.52586 -14.6449
LeftArm  -26.5352 23.3754 -45.8517
LeftForeArm  -40.7521 -37.6382 -10.4426
LeftHand  0.953752 8.20523 37.3715
RightShoulder  1.38088 1.98742 18.7188
RightArm  -29.9322 -28.3825 28.5119
RightForeArm  -22.9888 58.0586 20.0968
RightHand  -1.27393 -0.504936 -29.8247
LeftUpLeg  -19.5132 -6.00033 36.9777
LeftLeg  63.7074 -6.62813 -13.7285
LeftFoot  -29.4604 -5.75506 -36.0548
LeftToes  -2.75829e-010 5.07641e-011 -5.51782e-011
428
root  13.9432 30.5501 2.00738 6.12549 -74.3058 -21.4809
RightUpLeg  -11.5051 -1.70231 -31.6156
RightLeg  56.2548 -9.10926 -14.7396
RightFoot  4.69104 -5.83654 40.8081
RightToes  -5.28226e-011 1.30204e-014 -6.03759e-014
Spine  33.1322 3.75613 -14.6822
Spine1  3.7458 -6.61393 25.8083
HEad  -19.7248 9.08055 -1.72687
LeftShoulder1  1.67026 -7.03382 -8.31754
LeftArm  -17.9416 22.1924 -51.3965
LeftForeArm  -44.2069 -24.9424 -7.37966
LeftHand  0.766864 7.75048 35.9473
RightShoulder  1.23565 1.2361 19.713
RightArm  -29.155 -37.1625 33.0901
RightForeArm  -19.7335 63.0923 24.7977
RightHand  -1.23322 -0.814579 -30.7724
LeftUpLeg  -18.1985 -8.24615 37.3286
LeftLeg  60.4228 -5.7427 -10.3021
LeftFoot  -27.7209 -5.23768 -36.369
LeftToes  -2.75829e-010 5.07641e-011 -5.51782e-011
429
root  13.6839 32.0632 2.80951 25.2518 -76.829 -39.7108
RightUpLeg  -15.3009 0.818265 -28.0434
RightLeg  52.2002 -9.89076 -13.8118
RightFoot  23.6366 -9.98335 31.8161
RightToes  -5.28226e-011 1.30204e-014 -6.03759e-014
Spine  29.8335 3.00647 -16.7222
Spine1  4.21034 -7.8524 27.8323
HEad  -17.3501 15.5443 -0.447603
LeftShoulder1  1.73772 -8.77026 -6.42346
LeftArm  -17.6571 26.3075 -53.0396
LeftForeArm  -43.7191 -18.2215 -7.72877
LeftHand  0.587459 7.32682 33.7488
RightShoulder  0.976514 0.294872 19.3125
RightArm  -23.6988 -41.3002 38.3166
RightForeArm  -21.7801 60.9741 22.9495
RightHand  -1.22729 -1.08653 -32.4753
LeftUpLeg  -13.1321 -7.36278 37.9825
LeftLeg  54.9167 -4.57802 -6.47806
LeftFoot  -25.1126 -4.51739 -37.3574
LeftToes  -2.75829e-010 5.07641e-011 -5.51782e-011
430
root  13.4968 33.7191 3.34255 60.8245 -79.7004 -74.4812
RightUpLeg  -22.7111 2.99297 -24.4278
RightLeg  49.2175 -6.08397 -7.78077
RightFoot  38.2913 -10.0679 21.9871
RightToes  -5.28226e-011 1.30204e-014 -6.03759e-014
Spine  28.0898 1.46124 -19.5431
Spine1  2.87854 -9.31939 28.7449
HEad  -14.239 26.8055 -1.04921
LeftShoulder1  2.01167 -9.02976 -8.62128
LeftArm  -22.0004 35.38 -49.9151
LeftForeArm  -43.637 -14.1947 -8.37494
LeftHand  0.465531 7.05815 31.3567
RightShoulder  0.724951 -0.507982 17.7674
RightArm  -17.5239 -39.6299 43.7551
RightForeArm  -27.7783 53.5564 17.2878
RightHand  -1.29452 -1.1606 -34.6965
LeftUpLeg  -5.45179 -3.65006 39.11
LeftLeg  47.4934 -3.50973 -3.65418
LeftFoot  -20.813 -3.24254 -39.227
LeftToes  -2.75829e-010 5.07641e-011 -5.51782e-011
431
root  13.3978 35.5703 3.61216 100.922 -79.007 -113.395
RightUpLeg  -31.2366 2.89366 -20.6054
RightLeg  50.0437 -4.13266 -5.65001
RightFoot  41.0603 -8.79596 18.3383
RightToes  -5.28226e-011 1.30204e-014 -6.03759e-014
Spine  27.1402 -0.508969 -24.0312
Spine1  1.18059 -11.6302 31.1857
HEad  -10.6711 39.4447 -1.57768
LeftShoulder1  2.29265 -8.3027 -12.3443
LeftArm  -22.9372 43.8128 -44.2358
LeftForeArm  -47.5289 -8.10303 -7.97458
LeftHand  0.545984 7.43089 30.1838
RightShoulder  0.582299 -0.997344 16.7302
RightArm  -15.5738 -36.8221 49.3562
RightForeArm  -32.572 46.1348 13.484
RightHand  -1.49623 -0.748579 -36.4848
LeftUpLeg  2.05445 0.656247 39.589
LeftLeg  38.106 -2.01686 -1.34
LeftFoot  -13.0244 -0.544927 -41.7121
LeftToes  -2.75829e-010 5.07641e-011 -5.51782e-011
432
root  13.3863 37.4481 3.72464 121.405 -77.2161 -132.091
RightUpLeg  -39.0651 0.354572 -17.0534
RightLeg  54.0689 -7.04828 -10.7665
RightFoot  36.7086 -7.95809 18.3679
RightToes  -5.28226e-011 1.30204e-014 -6.03759e-014
Spine  26.6886 -3.22314 -28.7869
Spine1  -0.269145 -14.8408 33.2174
HEad  -6.53359 49.5667 0.0280559
LeftShoulder1  2.3771 -7.76038 -14.1906
LeftArm  -20.4426 49.6976 -39.3568
LeftForeArm  -50.4817 0.190862 -6.78881
LeftHand  0.745615 8.18229 30.1792
RightShoulder  0.420983 -1.64474 16.1374
RightArm  -14.6442 -36.3208 54.4216
RightForeArm  -33.7116 41.7767 11.7825
RightHand  -1.59692 -0.445806 -36.5176
LeftUpLeg  7.01087 4.25391 38.6383
LeftLeg  28.0028 0.547295 0.60892
LeftFoot  -1.04452 3.96557 -42.3834
LeftToes  -2.75829e-010 5.07641e-011 -5.51782e-011
433
root  13.4401 39.0386 3.76486 126.868 -77.3683 -136.034
RightUpLeg  -44.2382 -3.06557 -14.649
RightLeg  58.0733 -9.41456 -16.1873
RightFoot  33.5873 -8.04266 19.8787
RightToes  -5.28226e-011 1.30204e-014 -6.03759e-014
Spine  28.1666 -6.58912 -32.7732
Spine1  -2.38971 -18.7802 33.838
HEad  -3.69018 56.4061 2.2647
LeftShoulder1  2.4276 -7.86071 -14.4785
LeftArm  -19.4293 55.1033 -35.7854
LeftForeArm  -47.4887 5.94244 -5.64581
LeftHand  0.886055 8.68895 30.359
RightShoulder  0.261742 -2.32348 15.8271
RightArm  -11.0564 -36.8236 58.0572
RightForeArm  -32.6305 39.2124 10.8181
RightHand  -1.41975 -0.855125 -35.4785
LeftUpLeg  8.87823 8.36 37.2815
LeftLeg  19.6071 2.20159 1.55269
LeftFoot  11.5366 8.04421 -38.8539
LeftToes  -2.75829e-010 5.07641e-011 -5.51782e-011
434
root  13.5404 40.2891 3.84303 121.959 -78.8263 -130.406
RightUpLeg  -46.0379 -6.13151 -13.7591
RightLeg  58.8967 -8.48517 -15.2636
RightFoot  35.8955 -8.80414 20.5626
RightToes  -5.28226e-011 1.30204e-014 -6.03759e-014
Spine  30.8485 -9.20674 -35.1668
Spine1  -3.99751 -22.2867 33.9676
HEad  -6.0215 58.8278 0.60425
LeftShoulder1  2.626 -8.33733 -15.3757
LeftArm  -19.0592 58.3199 -32.3049
LeftForeArm  -43.2556 5.45458 -4.81865
LeftHand  0.920881 8.82193 30.3303
RightShoulder  0.254337 -2.36129 15.9493
RightArm  -8.15461 -37.4666 60.2991
RightForeArm  -31.4876 39.2234 10.7889
RightHand  -1.32151 -1.11349 -35.0503
LeftUpLeg  8.80358 15.0163 36.6031
LeftLeg  13.8951 0.198494 2.24768
LeftFoot  18.6286 8.92555 -32.8611
LeftToes  -2.75829e-010 5.07641e-011 -5.51782e-011
435
root  13.6089 41.1687 3.95077 112.15 -80.1269 -120.25
RightUpLeg  -45.6038 -8.36821 -13.9087
RightLeg  57.0415 -5.70992 -9.84981
RightFoot  38.2734 -9.80353 21.6416
RightToes  -5.28226e-011 1.30204e-014 -6.03759e-014
Spine  32.0141 -10.0967 -35.5484
Spine1  -3.51653 -23.7353 33.036
HEad  -11.7912 56.2769 -3.94679
LeftShoulder1  2.69526 -8.64725 -15.3841
LeftArm  -17.7439 56.455 -29.5871
LeftForeArm  -41.3494 5.57368 -4.8766
LeftHand  0.885378 8.6937 30.2935
RightShoulder  0.214498 -2.51413 15.1087
RightArm  -7.28019 -37.8302 62.7646
RightForeArm  -30.9051 41.2734 11.4895
RightHand  -1.36479 -0.935147 -34.7558
LeftUpLeg  7.8553 19.4143 35.6738
LeftLeg  10.2 -0.0822923 3.04298
LeftFoot  19.5058 7.89026 -28.5043
LeftToes  -2.75829e-010 5.07641e-011 -5.51782e-011
436
root  13.6567 41.6162 4.11328 103.745 -80.5511 -111.285
RightUpLeg  -44.2541 -9.94691 -14.3106
RightLeg  54.295 -4.81121 -7.49639
RightFoot  36.7092 -10.293 23.4596
RightToes  -5.28226e-011 1.30204e-014 -6.03759e-014
Spine  31.4543 -9.96184 -34.0596
Spine1  -2.23839 -23.1592 30.8496
HEad  -14.1368 52.3053 -5.22573
LeftShoulder1  2.40035 -8.37875 -13.1883
LeftArm  -15.6821 51.4101 -28.7485
LeftForeArm  -39.9143 5.68851 -6.25
LeftHand  0.764236 8.24734 30.2254
RightShoulder  0.0284009 -3.33372 13.4575
RightArm  -5.46024 -36.3364 64.8605
RightForeArm  -28.9251 41.9006 11.6338
RightHand  -1.31799 -0.89741 -33.3529
LeftUpLeg  6.37372 20.6437 34.3771
LeftLeg  7.45079 4.10276 3.46276
LeftFoot  20.9862 7.75605 -26.8038
LeftToes  -2.75829e-010 5.07641e-011 -5.51782e-011
437
root  13.7433 41.6473 4.37421 94.8718 -80.3447 -101.457
RightUpLeg  -41.7337 -11.5932 -15.2141
RightLeg  50.2075 -6.59294 -8.72322
RightFoot  34.2221 -10.4201 25.0925
RightToes  -5.28226e-011 1.30204e-014 -6.03759e-014
Spine  31.0573 -9.30222 -31.5746
Spine1  -2.73405 -21.4331 29.519
HEad  -12.7476 49.3756 -3.81395
LeftShoulder1  1.9973 -7.34062 -11.2355
LeftArm  -15.8132 46.3878 -29.6018
LeftForeArm  -37.0759 3.2519 -7.13713
LeftHand  0.608933 7.64058 30.5622
RightShoulder  0.0749191 -3.14043 13.8342
RightArm  -3.73666 -33.9581 62.7045
RightForeArm  -24.6824 42.7267 11.7583
RightHand  -1.27085 -0.890818 -32.1857
LeftUpLeg  3.84271 21.1013 32.9047
LeftLeg  6.15508 10.3969 3.19735
LeftFoot  26.1327 8.37502 -24.8878
LeftToes  -2.75829e-010 5.07641e-011 -5.51782e-011
